<?xml version="1.0" standalone="no"?><!DOCTYPE svg PUBLIC "-//W3C//DTD SVG 1.1//EN" "http://www.w3.org/Graphics/SVG/1.1/DTD/svg11.dtd"><svg t="1584603306271" class="icon" viewBox="0 0 1024 1024" version="1.1" xmlns="http://www.w3.org/2000/svg" p-id="2438" xmlns:xlink="http://www.w3.org/1999/xlink" width="200" height="200"><defs><style type="text/css"></style></defs><path d="M800.038 928.016H223.962c-52.98 0-95.984-43.003-95.984-95.984V192.14c0-52.98 43.004-95.984 95.984-95.984h575.904c52.98 0 95.983 43.003 95.983 95.984v639.892c0.173 52.809-43.003 95.984-95.811 95.984zM223.962 159.973c-17.545 0-31.994 14.45-31.994 31.995V831.86c0 17.718 14.449 31.995 31.994 31.995h575.904c17.717 0 31.994-14.277 31.994-31.995V191.968c0-17.546-14.277-31.995-31.994-31.995H223.962z" fill="" p-id="2439"></path><path d="M640.925 544.769H287.78c-17.718 0-31.995-14.277-31.995-31.995 0-17.717 14.277-31.995 31.995-31.995h353.145c17.717 0 31.994 14.278 31.994 31.995 0 17.718-14.277 31.995-31.994 31.995zM734.844 735.532H287.608c-17.718 0-31.995-14.277-31.995-31.994s14.277-31.995 31.995-31.995h447.236c17.718 0 31.995 14.277 31.995 31.995s-14.277 31.994-31.995 31.994zM255.785 305.325c0 26.49 21.502 47.992 47.992 47.992s47.992-21.502 47.992-47.992-21.502-47.992-47.992-47.992-47.992 21.502-47.992 47.992zM463.062 305.325c0 26.49 21.502 47.992 47.992 47.992s47.992-21.502 47.992-47.992-21.502-47.992-47.992-47.992-47.992 21.502-47.992 47.992zM671.2 305.325c0 26.49 21.5 47.992 47.991 47.992s47.992-21.502 47.992-47.992-21.502-47.992-47.992-47.992-47.992 21.502-47.992 47.992z" fill="" p-id="2440"></path></svg>